<svg width="20" height="20" viewBox="0 0 20 20" fill="none" xmlns="http://www.w3.org/2000/svg">
<path d="M16.65 4.30798C15.058 3.02638 12.5392 2.80918 12.4312 2.80158C12.3492 2.79482 12.267 2.81376 12.1962 2.85576C12.1254 2.89775 12.0694 2.96074 12.036 3.03598C11.988 3.14407 11.9472 3.25525 11.914 3.36878C12.9672 3.54678 14.2608 3.90478 15.4312 4.63118C15.4759 4.65889 15.5146 4.69512 15.5453 4.73781C15.5759 4.78049 15.5979 4.8288 15.6098 4.87996C15.6218 4.93113 15.6236 4.98415 15.6151 5.036C15.6066 5.08786 15.5879 5.13753 15.5602 5.18218C15.5325 5.22683 15.4963 5.26558 15.4536 5.29623C15.4109 5.32688 15.3626 5.34881 15.3114 5.36079C15.2603 5.37277 15.2072 5.37456 15.1554 5.36604C15.1035 5.35753 15.0539 5.33889 15.0092 5.31118C12.9972 4.06198 10.4844 3.99998 10 3.99998C9.51602 3.99998 7.00162 4.06238 4.99082 5.31078C4.94617 5.33849 4.8965 5.35713 4.84464 5.36564C4.79279 5.37416 4.73977 5.37237 4.6886 5.36039C4.58527 5.3362 4.49578 5.27195 4.43982 5.18178C4.38386 5.0916 4.36601 4.98289 4.3902 4.87956C4.41439 4.77623 4.47864 4.68674 4.56882 4.63078C5.73922 3.90638 7.03282 3.54678 8.08602 3.37038C8.02522 3.17198 7.97002 3.04678 7.96602 3.03598C7.93273 2.96021 7.87648 2.89681 7.8052 2.85475C7.73393 2.81269 7.65124 2.79409 7.56882 2.80158C7.46082 2.80958 4.94202 3.02638 3.32802 4.32518C2.48602 5.10438 0.800018 9.66078 0.800018 13.6C0.800018 13.6704 0.818818 13.7376 0.853218 13.7984C2.01562 15.8424 5.18922 16.3764 5.91242 16.4H5.92482C5.98793 16.4001 6.05019 16.3854 6.1065 16.3569C6.16281 16.3284 6.21158 16.2869 6.24882 16.236L6.97962 15.2296C5.00642 14.7204 3.99842 13.8548 3.94082 13.8032C3.86125 13.7329 3.81285 13.634 3.80624 13.5281C3.79964 13.4221 3.83539 13.3179 3.90562 13.2384C3.97585 13.1588 4.07481 13.1104 4.18073 13.1038C4.28665 13.0972 4.39085 13.1329 4.47042 13.2032C4.49362 13.2252 6.35002 14.8 10 14.8C13.656 14.8 15.5124 13.2188 15.5312 13.2032C15.611 13.1334 15.7152 13.0982 15.821 13.1053C15.9267 13.1123 16.0254 13.1611 16.0952 13.2408C16.1298 13.2801 16.1563 13.3258 16.1732 13.3753C16.1901 13.4248 16.1971 13.4772 16.1937 13.5294C16.1904 13.5817 16.1768 13.6327 16.1537 13.6797C16.1306 13.7267 16.0985 13.7686 16.0592 13.8032C16.0016 13.8548 14.9936 14.7204 13.0204 15.2296L13.7516 16.236C13.7888 16.2869 13.8375 16.3283 13.8938 16.3568C13.95 16.3853 14.0122 16.4001 14.0752 16.4H14.0872C14.8112 16.3764 17.9844 15.842 19.1472 13.7984C19.1812 13.7376 19.2 13.6704 19.2 13.6C19.2 9.66078 17.514 5.10478 16.65 4.30798V4.30798ZM7.40002 12C6.62642 12 6.00002 11.284 6.00002 10.4C6.00002 9.51598 6.62642 8.79998 7.40002 8.79998C8.17362 8.79998 8.80002 9.51598 8.80002 10.4C8.80002 11.284 8.17362 12 7.40002 12ZM12.6 12C11.8264 12 11.2 11.284 11.2 10.4C11.2 9.51598 11.8264 8.79998 12.6 8.79998C13.3736 8.79998 14 9.51598 14 10.4C14 11.284 13.3736 12 12.6 12Z" fill="#01A9F4"/>
</svg>
