<svg width="100" height="58" viewBox="0 0 100 58" fill="none" xmlns="http://www.w3.org/2000/svg">
<rect x="13.8661" y="3.81238" width="72.1563" height="47.8148" stroke="white" stroke-opacity="0.6" stroke-width="0.5"/>
<path d="M59 30V34C59 34.5304 58.7893 35.0391 58.4142 35.4142C58.0391 35.7893 57.5304 36 57 36H43C42.4696 36 41.9609 35.7893 41.5858 35.4142C41.2107 35.0391 41 34.5304 41 34V30" stroke="white" stroke-linecap="round" stroke-linejoin="round"/>
<path d="M45 25L50 30L55 25" stroke="white" stroke-linecap="round" stroke-linejoin="round"/>
<path d="M50 30V18" stroke="white" stroke-linecap="round" stroke-linejoin="round"/>
<rect x="10.518" y="0.25" width="79.0759" height="55.0509" rx="2.75" stroke="white" stroke-opacity="0.6" stroke-width="0.5"/>
<rect x="0.25" y="55.9121" width="99.5" height="1.83781" rx="0.918907" stroke="white" stroke-opacity="0.6" stroke-width="0.5"/>
<path d="M34.5082 55.9121H65.1521C65.4445 55.9121 65.5464 56.3004 65.2917 56.444C64.8087 56.7163 64.2636 56.8594 63.7091 56.8594H36.0091C35.4279 56.8594 34.8591 56.6911 34.3714 56.3749C34.1611 56.2385 34.2576 55.9121 34.5082 55.9121Z" stroke="white" stroke-opacity="0.6" stroke-width="0.5"/>
</svg>
