<svg width="64" height="64" viewBox="0 0 64 64" fill="none" xmlns="http://www.w3.org/2000/svg">
<circle cx="32" cy="32" r="32" fill="#FE7448" fill-opacity="0.2"/>
<path d="M44.5193 21.3332H43.2269C43.0336 21.3332 42.85 21.4172 42.723 21.563C42.5967 21.7088 42.5394 21.9029 42.5668 22.0943C42.6344 22.5682 42.6664 22.9621 42.6664 23.3332C42.6664 28.1119 38.7783 31.9999 33.9997 31.9999C29.2211 31.9999 25.333 28.1119 25.333 23.3332C25.333 22.9621 25.3649 22.5682 25.4326 22.0943C25.46 21.9028 25.4027 21.7088 25.2764 21.563C25.1494 21.4172 24.9658 21.3332 24.7724 21.3332H23.2251L22.6835 19.6021C22.5094 19.0454 21.9938 18.6665 21.4105 18.6665H17.9997C17.6315 18.6665 17.333 18.9649 17.333 19.3332V20.6665C17.333 21.0347 17.6315 21.3332 17.9997 21.3332H20.4307L24.6451 34.8024L22.6664 36.7811C21.9008 37.5461 21.6742 38.6868 22.0883 39.6868C22.5023 40.6868 23.4698 41.3333 24.5518 41.3333H43.3331C43.7013 41.3333 43.9998 41.0348 43.9998 40.6666V39.3333C43.9998 38.965 43.7013 38.6666 43.3331 38.6666H24.5518L27.2184 35.9999H39.3968C40.4248 35.9999 41.3721 35.3989 41.8103 34.4686L46.4626 24.5826C46.5961 24.2981 46.6664 23.9823 46.6664 23.6691V23.4803C46.6664 22.2961 45.7034 21.3332 44.5193 21.3332Z" fill="#FE7448"/>
<path d="M25.3332 47.9999C26.806 47.9999 27.9999 46.806 27.9999 45.3332C27.9999 43.8604 26.806 42.6665 25.3332 42.6665C23.8604 42.6665 22.6665 43.8604 22.6665 45.3332C22.6665 46.806 23.8604 47.9999 25.3332 47.9999Z" fill="#FE7448"/>
<path d="M41.3332 47.9999C42.806 47.9999 43.9999 46.806 43.9999 45.3332C43.9999 43.8604 42.806 42.6665 41.3332 42.6665C39.8604 42.6665 38.6665 43.8604 38.6665 45.3332C38.6665 46.806 39.8604 47.9999 41.3332 47.9999Z" fill="#FE7448"/>
<path d="M33.9998 30.6667C38.0434 30.6667 41.3331 27.377 41.3331 23.3334C41.3331 19.2898 38.0434 16 33.9998 16C29.9562 16 26.6665 19.2897 26.6665 23.3333C26.6665 27.3769 29.9562 30.6667 33.9998 30.6667ZM31.5284 21.8047C31.268 21.5443 31.268 21.1224 31.5284 20.862C31.7889 20.6016 32.2107 20.6016 32.4711 20.862L33.9998 22.3906L35.5284 20.862C35.7889 20.6016 36.2107 20.6016 36.4711 20.862C36.7316 21.1224 36.7316 21.5443 36.4711 21.8047L34.9425 23.3333L36.4711 24.8619C36.7316 25.1224 36.7316 25.5442 36.4711 25.8046C36.3409 25.9349 36.1704 26 35.9998 26C35.8292 26 35.6587 25.9349 35.5284 25.8047L33.9998 24.2761L32.4712 25.8047C32.3409 25.9349 32.1704 26 31.9998 26C31.8292 26 31.6587 25.9349 31.5284 25.8047C31.268 25.5443 31.268 25.1224 31.5284 24.862L33.0571 23.3334L31.5284 21.8047Z" fill="#FE7448"/>
</svg>
